<svg width="190" height="60" viewBox="0 0 190 60" fill="none" xmlns="http://www.w3.org/2000/svg">
<path d="M71.925 23V6.825H82.9C84.15 6.825 85.2333 7 86.15 7.35C87.0833 7.68333 87.8083 8.21667 88.325 8.95C88.8417 9.66667 89.1 10.5917 89.1 11.725C89.1 12.4917 88.9667 13.1417 88.7 13.675C88.4333 14.2083 88.0583 14.6417 87.575 14.975C87.1083 15.3083 86.5667 15.5667 85.95 15.75C85.3333 15.9167 84.675 16.025 83.975 16.075L83.625 15.875C84.7917 15.8917 85.75 15.9917 86.5 16.175C87.25 16.3417 87.8083 16.6583 88.175 17.125C88.5583 17.575 88.75 18.25 88.75 19.15V23H85.425V19.375C85.425 18.7583 85.3167 18.2833 85.1 17.95C84.8833 17.6 84.4917 17.3583 83.925 17.225C83.375 17.0917 82.575 17.025 81.525 17.025H75.25V23H71.925ZM75.25 14.425H82.9C83.8333 14.425 84.5417 14.2 85.025 13.75C85.525 13.3 85.775 12.6917 85.775 11.925C85.775 11.1917 85.525 10.6333 85.025 10.25C84.5417 9.86667 83.8333 9.675 82.9 9.675H75.25V14.425ZM98.1311 23.275C96.8977 23.275 95.7727 23.0083 94.7561 22.475C93.7561 21.925 92.9561 21.1667 92.3561 20.2C91.7727 19.2167 91.4811 18.0833 91.4811 16.8C91.4811 15.4833 91.7811 14.3417 92.3811 13.375C92.9811 12.4083 93.7894 11.6583 94.8061 11.125C95.8394 10.575 97.0061 10.3 98.3061 10.3C99.7394 10.3 100.889 10.5917 101.756 11.175C102.639 11.7417 103.281 12.5167 103.681 13.5C104.081 14.4833 104.281 15.5833 104.281 16.8C104.281 17.5333 104.164 18.2833 103.931 19.05C103.698 19.8 103.339 20.5 102.856 21.15C102.373 21.7833 101.739 22.3 100.956 22.7C100.173 23.0833 99.2311 23.275 98.1311 23.275ZM99.1811 20.775C100.164 20.775 101.014 20.6083 101.731 20.275C102.448 19.9417 102.998 19.475 103.381 18.875C103.764 18.275 103.956 17.5833 103.956 16.8C103.956 15.95 103.756 15.2333 103.356 14.65C102.973 14.05 102.423 13.6 101.706 13.3C101.006 12.9833 100.164 12.825 99.1811 12.825C97.7977 12.825 96.7227 13.1917 95.9561 13.925C95.1894 14.6417 94.8061 15.6 94.8061 16.8C94.8061 17.6 94.9894 18.3 95.3561 18.9C95.7227 19.4833 96.2311 19.9417 96.8811 20.275C97.5477 20.6083 98.3144 20.775 99.1811 20.775ZM103.956 10.575H107.206V23H104.181C104.181 23 104.156 22.8417 104.106 22.525C104.073 22.1917 104.039 21.775 104.006 21.275C103.973 20.775 103.956 20.2833 103.956 19.8V10.575ZM119.197 23.3C118.097 23.3 117.156 23.1083 116.372 22.725C115.606 22.325 114.981 21.8083 114.497 21.175C114.014 20.525 113.656 19.8167 113.422 19.05C113.189 18.2833 113.072 17.5333 113.072 16.8C113.072 15.8833 113.181 15.0333 113.397 14.25C113.631 13.4667 113.989 12.7833 114.472 12.2C114.956 11.6 115.581 11.1333 116.347 10.8C117.131 10.4667 118.081 10.3 119.197 10.3C120.447 10.3 121.572 10.575 122.572 11.125C123.572 11.675 124.364 12.4417 124.947 13.425C125.547 14.3917 125.847 15.5167 125.847 16.8C125.847 18.1167 125.547 19.2667 124.947 20.25C124.347 21.2167 123.547 21.9667 122.547 22.5C121.547 23.0333 120.431 23.3 119.197 23.3ZM118.147 20.775C119.031 20.775 119.797 20.6083 120.447 20.275C121.114 19.9417 121.622 19.4833 121.972 18.9C122.339 18.3 122.522 17.6 122.522 16.8C122.522 15.6 122.139 14.6333 121.372 13.9C120.622 13.1667 119.547 12.8 118.147 12.8C117.264 12.8 116.456 12.9583 115.722 13.275C115.006 13.5917 114.439 14.05 114.022 14.65C113.606 15.2333 113.397 15.95 113.397 16.8C113.397 17.6 113.589 18.3 113.972 18.9C114.356 19.4833 114.906 19.9417 115.622 20.275C116.339 20.6083 117.181 20.775 118.147 20.775ZM110.147 10.575H113.247L113.397 13.875V28H110.147V10.575ZM127.363 10.575H137.013V13.1H127.363V10.575ZM130.563 7.175H133.813V23H130.563V7.175ZM153.453 23H150.203V10.575H153.453V23ZM150.378 17.025L150.403 17.875C150.37 18.1083 150.286 18.45 150.153 18.9C150.02 19.3333 149.811 19.8 149.528 20.3C149.261 20.8 148.911 21.2833 148.478 21.75C148.045 22.2 147.511 22.575 146.878 22.875C146.245 23.1583 145.495 23.3 144.628 23.3C143.945 23.3 143.27 23.2167 142.603 23.05C141.953 22.8833 141.361 22.6083 140.828 22.225C140.295 21.825 139.87 21.2917 139.553 20.625C139.236 19.9583 139.078 19.1167 139.078 18.1V10.575H142.328V17.55C142.328 18.35 142.453 18.9833 142.703 19.45C142.97 19.9 143.353 20.2167 143.853 20.4C144.353 20.5833 144.945 20.675 145.628 20.675C146.528 20.675 147.303 20.4833 147.953 20.1C148.603 19.7 149.128 19.2167 149.528 18.65C149.945 18.0833 150.228 17.5417 150.378 17.025ZM156.412 10.575H159.662V23H156.412V10.575ZM164.437 13.25C163.504 13.25 162.695 13.4333 162.012 13.8C161.329 14.15 160.779 14.5833 160.362 15.1C159.945 15.6167 159.654 16.1167 159.487 16.6L159.462 15.225C159.479 15.025 159.545 14.7333 159.662 14.35C159.779 13.95 159.954 13.525 160.187 13.075C160.42 12.6083 160.729 12.1667 161.112 11.75C161.495 11.3167 161.962 10.9667 162.512 10.7C163.062 10.4333 163.704 10.3 164.437 10.3V13.25ZM177.771 18.875H180.921C180.788 19.725 180.43 20.4833 179.846 21.15C179.28 21.8167 178.505 22.3417 177.521 22.725C176.538 23.1083 175.338 23.3 173.921 23.3C172.338 23.3 170.938 23.05 169.721 22.55C168.505 22.0333 167.555 21.2917 166.871 20.325C166.188 19.3583 165.846 18.1917 165.846 16.825C165.846 15.4583 166.18 14.2917 166.846 13.325C167.513 12.3417 168.438 11.5917 169.621 11.075C170.821 10.5583 172.221 10.3 173.821 10.3C175.455 10.3 176.813 10.5583 177.896 11.075C178.98 11.5917 179.78 12.375 180.296 13.425C180.83 14.4583 181.055 15.7833 180.971 17.4H169.121C169.205 18.0333 169.438 18.6083 169.821 19.125C170.221 19.6417 170.755 20.05 171.421 20.35C172.105 20.65 172.913 20.8 173.846 20.8C174.88 20.8 175.738 20.625 176.421 20.275C177.121 19.9083 177.571 19.4417 177.771 18.875ZM173.671 12.775C172.471 12.775 171.496 13.0417 170.746 13.575C169.996 14.0917 169.513 14.7333 169.296 15.5H177.746C177.663 14.6667 177.263 14.0083 176.546 13.525C175.846 13.025 174.888 12.775 173.671 12.775ZM74.45 49.475V46.7H85.15V49.475H74.45ZM70.425 53L78.025 36.825H81.625L89.3 53H85.675L79.025 38.425H80.625L74.025 53H70.425ZM89.4482 40.575H99.0982V43.1H89.4482V40.575ZM92.6482 37.175H95.8982V53H92.6482V37.175ZM112.513 53V46.175C112.513 45.4917 112.396 44.925 112.163 44.475C111.93 44.025 111.555 43.6833 111.038 43.45C110.538 43.2167 109.863 43.1 109.013 43.1C108.196 43.1 107.455 43.2583 106.788 43.575C106.121 43.875 105.58 44.275 105.163 44.775C104.746 45.2583 104.513 45.775 104.463 46.325L104.438 44.95C104.521 44.4 104.713 43.85 105.013 43.3C105.313 42.75 105.713 42.25 106.213 41.8C106.713 41.35 107.313 40.9917 108.013 40.725C108.73 40.4417 109.53 40.3 110.413 40.3C111.18 40.3 111.888 40.4 112.538 40.6C113.188 40.7833 113.755 41.075 114.238 41.475C114.721 41.875 115.096 42.375 115.363 42.975C115.63 43.5583 115.763 44.25 115.763 45.05V53H112.513ZM101.388 53V35.575H104.638V53H101.388ZM118.967 35.575H122.217V53H118.967V35.575ZM136.829 48.875H139.979C139.846 49.725 139.487 50.4833 138.904 51.15C138.337 51.8167 137.562 52.3417 136.579 52.725C135.596 53.1083 134.396 53.3 132.979 53.3C131.396 53.3 129.996 53.05 128.779 52.55C127.562 52.0333 126.612 51.2917 125.929 50.325C125.246 49.3583 124.904 48.1917 124.904 46.825C124.904 45.4583 125.237 44.2917 125.904 43.325C126.571 42.3417 127.496 41.5917 128.679 41.075C129.879 40.5583 131.279 40.3 132.879 40.3C134.512 40.3 135.871 40.5583 136.954 41.075C138.037 41.5917 138.837 42.375 139.354 43.425C139.887 44.4583 140.112 45.7833 140.029 47.4H128.179C128.262 48.0333 128.496 48.6083 128.879 49.125C129.279 49.6417 129.812 50.05 130.479 50.35C131.162 50.65 131.971 50.8 132.904 50.8C133.937 50.8 134.796 50.625 135.479 50.275C136.179 49.9083 136.629 49.4417 136.829 48.875ZM132.729 42.775C131.529 42.775 130.554 43.0417 129.804 43.575C129.054 44.0917 128.571 44.7333 128.354 45.5H136.804C136.721 44.6667 136.321 44.0083 135.604 43.525C134.904 43.025 133.946 42.775 132.729 42.775ZM141.401 40.575H151.051V43.1H141.401V40.575ZM144.601 37.175H147.851V53H144.601V37.175ZM156.841 35.125V37.975H153.066V35.125H156.841ZM153.316 40.575H156.566V53H153.316V40.575ZM174.556 48.1C174.472 49.1833 174.122 50.1167 173.506 50.9C172.906 51.6833 172.072 52.2833 171.006 52.7C169.939 53.1 168.672 53.3 167.206 53.3C165.672 53.3 164.297 53.0583 163.081 52.575C161.881 52.075 160.931 51.35 160.231 50.4C159.547 49.4333 159.206 48.2417 159.206 46.825C159.206 45.4083 159.547 44.2167 160.231 43.25C160.931 42.2833 161.881 41.55 163.081 41.05C164.297 40.55 165.672 40.3 167.206 40.3C168.672 40.3 169.931 40.5083 170.981 40.925C172.031 41.325 172.856 41.9083 173.456 42.675C174.072 43.4417 174.431 44.3667 174.531 45.45H171.556C171.272 44.6167 170.747 43.9667 169.981 43.5C169.214 43.0333 168.289 42.8 167.206 42.8C166.339 42.8 165.547 42.95 164.831 43.25C164.131 43.55 163.564 44 163.131 44.6C162.714 45.1833 162.506 45.925 162.506 46.825C162.506 47.7083 162.714 48.45 163.131 49.05C163.547 49.6333 164.114 50.075 164.831 50.375C165.547 50.6583 166.339 50.8 167.206 50.8C168.372 50.8 169.322 50.5667 170.056 50.1C170.806 49.6333 171.314 48.9667 171.581 48.1H174.556ZM176.444 48.875H179.444C179.628 49.4417 180.003 49.9083 180.569 50.275C181.153 50.625 181.911 50.8 182.844 50.8C183.478 50.8 183.969 50.7417 184.319 50.625C184.669 50.5083 184.911 50.3417 185.044 50.125C185.178 49.8917 185.244 49.6333 185.244 49.35C185.244 49 185.136 48.7333 184.919 48.55C184.703 48.35 184.369 48.1917 183.919 48.075C183.469 47.9583 182.894 47.85 182.194 47.75C181.494 47.6333 180.819 47.4917 180.169 47.325C179.519 47.1583 178.944 46.9417 178.444 46.675C177.944 46.3917 177.544 46.0417 177.244 45.625C176.961 45.1917 176.819 44.6667 176.819 44.05C176.819 43.45 176.961 42.9167 177.244 42.45C177.544 41.9833 177.953 41.5917 178.469 41.275C179.003 40.9583 179.619 40.7167 180.319 40.55C181.036 40.3833 181.803 40.3 182.619 40.3C183.853 40.3 184.878 40.4833 185.694 40.85C186.511 41.2 187.119 41.7 187.519 42.35C187.936 42.9833 188.144 43.7167 188.144 44.55H185.269C185.136 43.9333 184.869 43.4917 184.469 43.225C184.069 42.9417 183.453 42.8 182.619 42.8C181.803 42.8 181.186 42.925 180.769 43.175C180.353 43.425 180.144 43.7667 180.144 44.2C180.144 44.55 180.269 44.825 180.519 45.025C180.786 45.2083 181.169 45.3583 181.669 45.475C182.186 45.5917 182.828 45.7167 183.594 45.85C184.244 45.9833 184.861 46.1333 185.444 46.3C186.044 46.4667 186.578 46.6833 187.044 46.95C187.511 47.2 187.878 47.5417 188.144 47.975C188.428 48.3917 188.569 48.925 188.569 49.575C188.569 50.375 188.336 51.05 187.869 51.6C187.419 52.15 186.769 52.575 185.919 52.875C185.069 53.1583 184.053 53.3 182.869 53.3C181.819 53.3 180.911 53.1917 180.144 52.975C179.394 52.7417 178.769 52.45 178.269 52.1C177.769 51.7333 177.378 51.35 177.094 50.95C176.828 50.5333 176.644 50.1417 176.544 49.775C176.444 49.4083 176.411 49.1083 176.444 48.875Z" fill="#333333"/>
<path d="M40.7006 38.0494L31.3256 28.6744C31.152 28.4995 30.9455 28.3606 30.718 28.2659C30.4905 28.1711 30.2465 28.1223 30 28.1223C29.7535 28.1223 29.5095 28.1711 29.282 28.2659C29.0545 28.3606 28.848 28.4995 28.6744 28.6744L3.75 53.5988L6.40125 56.25L30 32.6513L36.7238 39.375L26.25 49.8488L28.9012 52.5L33.1987 48.2025L40.7006 40.7007C40.8753 40.5269 41.014 40.3204 41.1086 40.0929C41.2032 39.8654 41.2519 39.6214 41.2519 39.375C41.2519 39.1286 41.2032 38.8847 41.1086 38.6572C41.014 38.4297 40.8753 38.2231 40.7006 38.0494Z" fill="#333333"/>
<path d="M53.5988 16.8749L43.125 27.3487L31.8731 16.0949C31.5233 15.7451 31.1074 15.4681 30.6498 15.2802C30.1921 15.0922 29.7016 14.997 29.2069 14.9999C28.2172 15.0014 27.2685 15.3952 26.5688 16.0949L15 27.6749L17.6512 30.3262L29.22 18.7481L41.8013 31.3256C41.9749 31.5 42.1814 31.6384 42.4087 31.7329C42.636 31.8273 42.8798 31.8759 43.1259 31.8759C43.3721 31.8759 43.6158 31.8273 43.8432 31.7329C44.0705 31.6384 44.2769 31.5 44.4506 31.3256L56.25 19.5262L53.5988 16.8749Z" fill="#333333"/>
<path d="M42.1875 16.875C38.5688 16.875 35.625 13.9312 35.625 10.3125C35.625 6.69375 38.5688 3.75 42.1875 3.75C45.8062 3.75 48.75 6.69375 48.75 10.3125C48.75 13.9312 45.8062 16.875 42.1875 16.875ZM42.1875 7.5C40.6369 7.5 39.375 8.76188 39.375 10.3125C39.375 11.8631 40.6369 13.125 42.1875 13.125C43.7381 13.125 45 11.8631 45 10.3125C45 8.76188 43.7381 7.5 42.1875 7.5Z" fill="#333333"/>
</svg>
