<svg width="64" height="64" viewBox="0 0 64 64" fill="none" xmlns="http://www.w3.org/2000/svg">
<path d="M39.544 31.8614L43.3146 28.0907L32 16.7734L20.6853 28.088L24.4586 31.8587L29.3333 26.9867V47.0854H34.6666V26.9867L39.544 31.8614Z" fill="#F3F3F3"/>
<path fill-rule="evenodd" clip-rule="evenodd" d="M52.7414 11.2587C41.2854 -0.197313 22.7147 -0.197313 11.2587 11.2587C-0.197252 22.7147 -0.197252 41.2854 11.2587 52.7414C22.7147 64.1974 41.2854 64.1974 52.7414 52.7414C64.1974 41.2854 64.1974 22.7147 52.7414 11.2587ZM48.9707 15.0294C44.4698 10.5285 38.3653 7.99987 32.0001 7.99987C25.6348 7.99987 19.5303 10.5285 15.0294 15.0294C10.5285 19.5303 7.99993 25.6348 7.99993 32C7.99993 38.3653 10.5285 44.4698 15.0294 48.9707C19.5303 53.4716 25.6348 56.0002 32.0001 56.0002C38.3653 56.0002 44.4698 53.4716 48.9707 48.9707C53.4716 44.4698 56.0002 38.3653 56.0002 32C56.0002 25.6348 53.4716 19.5303 48.9707 15.0294Z" fill="#F3F3F3"/>
</svg>
