<svg width="40" height="40" viewBox="0 0 40 40" fill="none" xmlns="http://www.w3.org/2000/svg">
<g clip-path="url(#clip0_1110_115)">
<path fill-rule="evenodd" clip-rule="evenodd" d="M5.85938 5.85781C9.60625 2.10844 14.6969 0 20 0C25.3031 0 30.3937 2.10844 34.1406 5.85781C37.8906 9.60719 40 14.6978 40 20C40 25.3022 37.8906 30.3928 34.1406 34.1422C30.3937 37.8916 25.3031 40 20 40C14.6969 40 9.60625 37.8916 5.85938 34.1422C2.10938 30.3928 0 25.3022 0 20C0.00103897 14.6956 2.10863 9.60868 5.85938 5.85781ZM20.7157 14.765C18.772 15.5741 14.8845 17.2487 9.0532 19.7887C8.10633 20.1653 7.60945 20.5337 7.5657 20.8937C7.48876 21.5019 8.25038 21.7418 9.28529 22.0677C9.42723 22.1124 9.57431 22.1587 9.72508 22.2078C10.747 22.5397 12.122 22.9281 12.8345 22.9434C13.4845 22.9575 14.2063 22.6903 15.0032 22.1422C20.4532 18.465 23.2626 16.6062 23.4407 16.5662C23.5657 16.5381 23.7376 16.5025 23.8532 16.6066C23.972 16.7103 23.9594 16.9072 23.947 16.96C23.8732 17.2812 20.8927 20.0523 19.3417 21.4943C18.8541 21.9477 18.5078 22.2696 18.4376 22.3428C18.2806 22.5059 18.1206 22.6602 17.9668 22.8084C17.0184 23.7226 16.3069 24.4085 18.0063 25.5281C18.8303 26.0709 19.488 26.5189 20.1454 26.9666C20.8517 27.4477 21.5576 27.9285 22.4688 28.5262C22.7032 28.6798 22.927 28.8393 23.1449 28.9947C23.9732 29.5851 24.7172 30.1155 25.6376 30.0309C26.172 29.9819 26.7251 29.4794 27.0032 27.9806C27.6657 24.4384 28.9688 16.7641 29.2688 13.6016C29.297 13.3247 29.2626 12.97 29.2376 12.8144C29.2094 12.6586 29.1532 12.4367 28.9532 12.2727C28.7126 12.0781 28.3438 12.0372 28.1782 12.0398C27.4251 12.0534 26.272 12.4547 20.7157 14.765Z" fill="white"/>
</g>
<defs>
<clipPath id="clip0_1110_115">
<rect width="40" height="40" fill="white"/>
</clipPath>
</defs>
</svg>
