<svg width="40" height="40" viewBox="0 0 40 40" fill="none" xmlns="http://www.w3.org/2000/svg">
<g clip-path="url(#clip0_1110_120)">
<path fill-rule="evenodd" clip-rule="evenodd" d="M3.42044 29.2954C1.73763 26.403 0.852627 23.1214 0.853564 19.7606C0.857939 9.24528 9.48294 0.690247 20.0803 0.690247C25.2237 0.692572 30.0511 2.67877 33.6808 6.28343C37.3111 9.88839 39.3092 14.68 39.3072 19.7757C39.3026 30.2915 30.6772 38.847 20.0811 38.847H20.0726C16.8628 38.8468 13.7042 38.0489 10.8851 36.5261L0.692627 39.1778L3.42044 29.2954ZM13.9862 10.6427C14.3408 10.6571 14.7331 10.6737 15.1059 11.4958C15.3601 12.0567 15.7875 13.1014 16.1288 13.9357C16.3815 14.5536 16.5871 15.056 16.6401 15.1611C16.7643 15.4081 16.8475 15.6965 16.6814 16.0261C16.6564 16.0757 16.6332 16.1226 16.6111 16.1673C16.4867 16.4193 16.3952 16.6046 16.1845 16.8495C16.1011 16.946 16.0148 17.0501 15.9286 17.1541C15.7574 17.3607 15.5863 17.5671 15.4376 17.7143C15.1881 17.9603 14.9289 18.2279 15.2192 18.7216C15.5095 19.216 16.5083 20.8323 17.9876 22.1411C19.577 23.547 20.9575 24.1417 21.6587 24.4437C21.7964 24.503 21.9079 24.551 21.9897 24.5916C22.4872 24.8386 22.7776 24.7975 23.0678 24.4675C23.3583 24.1382 24.3112 23.0262 24.6431 22.5326C24.975 22.0382 25.3067 22.1203 25.7629 22.285C26.219 22.4498 28.6656 23.6444 29.1634 23.8913C29.2603 23.9394 29.3509 23.9828 29.4349 24.023C29.7824 24.1894 30.0172 24.3018 30.1173 24.4675C30.2417 24.674 30.2417 25.6622 29.8268 26.8151C29.4123 27.9681 27.3804 29.08 26.4679 29.1622C26.3803 29.1701 26.2931 29.1803 26.2034 29.1908C25.3602 29.2893 24.2961 29.4137 20.4964 27.927C15.8223 26.0981 12.7403 21.566 12.1028 20.6286C12.0504 20.5516 12.0145 20.4988 11.9956 20.4738L11.9902 20.4667C11.7223 20.1115 9.96372 17.7794 9.96372 15.3668C9.96372 13.0931 11.0899 11.9012 11.6083 11.3526C11.6437 11.315 11.6764 11.2805 11.7056 11.2489C12.1614 10.7551 12.7006 10.6312 13.0325 10.6312C13.0541 10.6312 13.0758 10.6312 13.0974 10.6312C13.4072 10.6311 13.7149 10.6311 13.9862 10.6427Z" fill="white"/>
</g>
<defs>
<clipPath id="clip0_1110_120">
<rect width="40" height="40" fill="white"/>
</clipPath>
</defs>
</svg>
