<svg width="40" height="40" viewBox="0 0 40 40" fill="none" xmlns="http://www.w3.org/2000/svg">
<path d="M16 26L26.38 20L16 14V26ZM39.12 10.34C39.38 11.28 39.56 12.54 39.68 14.14C39.82 15.74 39.88 17.12 39.88 18.32L40 20C40 24.38 39.68 27.6 39.12 29.66C38.62 31.46 37.46 32.62 35.66 33.12C34.72 33.38 33 33.56 30.36 33.68C27.76 33.82 25.38 33.88 23.18 33.88L20 34C11.62 34 6.4 33.68 4.34 33.12C2.54 32.62 1.38 31.46 0.88 29.66C0.62 28.72 0.44 27.46 0.32 25.86C0.18 24.26 0.12 22.88 0.12 21.68L0 20C0 15.62 0.32 12.4 0.88 10.34C1.38 8.54 2.54 7.38 4.34 6.88C5.28 6.62 7 6.44 9.64 6.32C12.24 6.18 14.62 6.12 16.82 6.12L20 6C28.38 6 33.6 6.32 35.66 6.88C37.46 7.38 38.62 8.54 39.12 10.34Z" fill="white"/>
</svg>
