<svg width="35" height="30" viewBox="0 0 35 30" fill="none" xmlns="http://www.w3.org/2000/svg">
<g clip-path="url(#clip0_294_169)">
<path fill-rule="evenodd" clip-rule="evenodd" d="M17.5 16.7674L25.7498 23.8387C26.0248 24.0664 26.3932 24.1924 26.7756 24.1895C27.158 24.1867 27.5237 24.0552 27.7941 23.8235C28.0645 23.5917 28.2179 23.2782 28.2212 22.9504C28.2245 22.6227 28.0775 22.3069 27.8119 22.0712L19.5621 14.9999L27.8119 7.92869C28.0775 7.69294 28.2245 7.37719 28.2212 7.04944C28.2179 6.7217 28.0645 6.40818 27.7941 6.17642C27.5237 5.94466 27.158 5.8132 26.7756 5.81035C26.3932 5.8075 26.0248 5.93349 25.7498 6.16119L17.5 13.2324L9.25021 6.16119C8.97393 5.93912 8.60769 5.8179 8.22899 5.82317C7.85028 5.82844 7.48883 5.95979 7.2211 6.18943C6.95338 6.41908 6.80039 6.72899 6.79451 7.05359C6.78863 7.3782 6.93031 7.69204 7.18959 7.92869L15.4379 14.9999L7.18813 22.0712C7.04885 22.1865 6.93775 22.3244 6.86132 22.4769C6.78489 22.6294 6.74466 22.7935 6.74297 22.9594C6.74129 23.1254 6.77819 23.29 6.85152 23.4436C6.92484 23.5973 7.03313 23.7368 7.17006 23.8542C7.30698 23.9716 7.46981 24.0644 7.64903 24.1272C7.82826 24.1901 8.02029 24.2217 8.21392 24.2203C8.40756 24.2188 8.59892 24.1843 8.77685 24.1188C8.95477 24.0533 9.11569 23.9581 9.25021 23.8387L17.5 16.7674Z" fill="black"/>
</g>
<defs>
<clipPath id="clip0_294_169">
<rect width="35" height="30" fill="white"/>
</clipPath>
</defs>
</svg>
