<svg width="27" height="27" viewBox="0 0 27 27" fill="none" xmlns="http://www.w3.org/2000/svg">
<path d="M10.5469 22.7812C10.5469 23.1984 10.4232 23.6063 10.1914 23.9532C9.9596 24.3 9.63016 24.5704 9.24472 24.7301C8.85929 24.8897 8.43516 24.9315 8.02598 24.8501C7.6168 24.7687 7.24095 24.5678 6.94595 24.2728C6.65095 23.9778 6.45005 23.6019 6.36866 23.1928C6.28727 22.7836 6.32904 22.3595 6.48869 21.974C6.64834 21.5886 6.91871 21.2591 7.26559 21.0274C7.61248 20.7956 8.02031 20.6719 8.4375 20.6719C8.99609 20.6746 9.531 20.8978 9.92599 21.2928C10.321 21.6877 10.5441 22.2227 10.5469 22.7812ZM19.4062 20.6719C18.9891 20.6719 18.5812 20.7956 18.2343 21.0274C17.8875 21.2591 17.6171 21.5886 17.4574 21.974C17.2978 22.3595 17.256 22.7836 17.3374 23.1928C17.4188 23.6019 17.6197 23.9778 17.9147 24.2728C18.2097 24.5678 18.5856 24.7687 18.9947 24.8501C19.4039 24.9315 19.828 24.8897 20.2135 24.7301C20.5989 24.5704 20.9284 24.3 21.1601 23.9532C21.3919 23.6063 21.5156 23.1984 21.5156 22.7812C21.5129 22.2227 21.2897 21.6877 20.8947 21.2928C20.4998 20.8978 19.9648 20.6746 19.4062 20.6719ZM24.6059 7.9418L22.0535 16.8434C21.8756 17.459 21.503 18.0004 20.9915 18.3864C20.48 18.7724 19.8572 18.9822 19.2164 18.9844H8.62734C7.98655 18.9822 7.36371 18.7724 6.85222 18.3864C6.34072 18.0004 5.9681 17.459 5.79023 16.8434L3.24844 7.96289C3.24844 7.95234 3.23789 7.93125 3.23789 7.9207L2.29922 4.64062H1.26562C0.92996 4.64062 0.608044 4.50728 0.370693 4.26993C0.133342 4.03258 0 3.71066 0 3.375C0 3.03934 0.133342 2.71742 0.370693 2.48007C0.608044 2.24272 0.92996 2.10938 1.26562 2.10938H2.61562C3.07392 2.11285 3.519 2.26329 3.88541 2.53858C4.25183 2.81387 4.52024 3.19947 4.65117 3.63867L5.41055 6.32812H23.3824C23.5782 6.32924 23.7711 6.37538 23.9461 6.46298C24.1212 6.55057 24.2738 6.67727 24.3921 6.83327C24.5103 6.98926 24.5911 7.17038 24.6282 7.3626C24.6653 7.55483 24.6576 7.753 24.6059 7.9418ZM21.7055 8.85938H6.13828L8.21602 16.1473C8.243 16.2354 8.29748 16.3127 8.37148 16.3677C8.44548 16.4227 8.53513 16.4527 8.62734 16.4531H19.2164C19.3086 16.4527 19.3983 16.4227 19.4723 16.3677C19.5463 16.3127 19.6007 16.2354 19.6277 16.1473L21.7055 8.85938Z" fill="black"/>
</svg>
